<svg xmlns="http://www.w3.org/2000/svg" viewBox="0 0 173.72 16.62"><defs><style>.cls-1{fill:#4fb1c5;}</style></defs><g id="レイヤー_2" data-name="レイヤー 2"><g id="編集モード"><path class="cls-1" d="M10.94,11.35a5.06,5.06,0,0,1-1.39,3.54,5.22,5.22,0,0,1-4.07,1.73q-3.69,0-5.48-3.83l3-1.58q.6,2.31,2.49,2.31A1.86,1.86,0,0,0,6.81,13a1.69,1.69,0,0,0,.57-1.3c0-.71-.58-1.38-1.74-2-2-1-3-1.61-3.22-1.75A4,4,0,0,1,.68,4.58,4.29,4.29,0,0,1,2.09,1.4,4.83,4.83,0,0,1,5.6,0a5.39,5.39,0,0,1,4.82,2.83L7.57,4.42a2.21,2.21,0,0,0-2-1.31c-1,0-1.45.41-1.45,1.24,0,.52.58,1.06,1.76,1.6A20.38,20.38,0,0,1,9.18,7.69a4.51,4.51,0,0,1,1.76,3.66"/><path class="cls-1" d="M32.25,8.31A8,8,0,0,1,29.86,14a8.32,8.32,0,0,1-6.22,2.62A8.34,8.34,0,0,1,17.41,14a8,8,0,0,1,0-11.38A8.34,8.34,0,0,1,23.64,0a8.32,8.32,0,0,1,6.22,2.62,7.94,7.94,0,0,1,2.39,5.69m-3.63,0A5,5,0,0,0,27.2,4.67a5.07,5.07,0,0,0-7.12,0,5,5,0,0,0-1.43,3.64A5,5,0,0,0,20.08,12a5.07,5.07,0,0,0,7.12,0,5.06,5.06,0,0,0,1.42-3.64"/><path class="cls-1" d="M50.38,16.28H46.1l-4.22-6H40.61v6H37.2V.34h5.26a5,5,0,0,1,4.31,1.9,5,5,0,0,1,1,3,4.54,4.54,0,0,1-2.54,4.15ZM44.33,5.34q0-1.83-2.19-1.83H40.61V7.24h1.47c1.5,0,2.25-.63,2.25-1.9"/><path class="cls-1" d="M68.38,16.28H64.75L63.58,13h-6l-1.16,3.28H52.84L59,.34h3.17Zm-5.87-6.22-1.9-5.33-1.92,5.33Z"/><path class="cls-1" d="M86.91,8.31a7.6,7.6,0,0,1-2,5.27,8.54,8.54,0,0,1-6.68,2.7H72.35V.34h6.09a8.22,8.22,0,0,1,6.27,2.57,7.64,7.64,0,0,1,2.2,5.4m-3.65,0A4.74,4.74,0,0,0,82,5a4.75,4.75,0,0,0-3.66-1.46H75.77v9.6h2.14a5.43,5.43,0,0,0,3.86-1.42,4.38,4.38,0,0,0,1.49-3.38"/><path class="cls-1" d="M108.6,8.31A8,8,0,0,1,106.22,14a8.71,8.71,0,0,1-12.45,0,8,8,0,0,1,0-11.38,8.71,8.71,0,0,1,12.45,0,7.93,7.93,0,0,1,2.38,5.69m-3.62,0a5,5,0,0,0-1.43-3.64,5.06,5.06,0,0,0-7.11,0A5,5,0,0,0,95,8.31,5,5,0,0,0,96.44,12a5.06,5.06,0,0,0,7.11,0A5,5,0,0,0,105,8.31"/><polygon class="cls-1" points="129.73 16.28 126.31 16.28 126.31 5.62 121.64 11.21 116.97 5.62 116.97 16.28 113.55 16.28 113.55 0.34 116.77 0.34 121.64 6.29 126.51 0.34 129.73 0.34 129.73 16.28"/><path class="cls-1" d="M149.24,16.28h-3.63L144.44,13h-5.95l-1.16,3.28H133.7L139.89.34h3.16Zm-5.86-6.22-1.9-5.33-1.93,5.33Z"/><path class="cls-1" d="M166.4,16.28h-4.28l-4.23-6h-1.26v6h-3.42V.34h5.26a5,5,0,0,1,4.32,1.9,5,5,0,0,1,1,3,4.56,4.56,0,0,1-2.54,4.15ZM160.35,5.34q0-1.83-2.19-1.83h-1.53V7.24h1.47c1.5,0,2.25-.63,2.25-1.9"/><rect class="cls-1" x="170.3" y="0.34" width="3.42" height="15.95"/></g></g></svg>